<?xml version="1.0" encoding="UTF-8"?>
<svg xmlns="http://www.w3.org/2000/svg" xmlns:xlink="http://www.w3.org/1999/xlink" width="375pt" height="374.999991pt" viewBox="0 0 375 374.999991" version="1.2">
<defs>
<clipPath id="clip1">
  <path d="M 244 144 L 324 144 L 324 351.9375 L 244 351.9375 Z M 244 144 "/>
</clipPath>
<clipPath id="clip2">
  <path d="M 149 23.4375 L 255 23.4375 L 255 87 L 149 87 Z M 149 23.4375 "/>
</clipPath>
<clipPath id="clip3">
  <path d="M 0 275 L 77 275 L 77 351.9375 L 0 351.9375 Z M 0 275 "/>
</clipPath>
</defs>
<g id="surface1">
<path style=" stroke:none;fill-rule:nonzero;fill:rgb(27.839661%,30.979919%,34.899902%);fill-opacity:1;" d="M 38.519531 74.535156 L 218.511719 74.535156 L 218.511719 318.273438 L 38.519531 318.273438 Z M 38.519531 74.535156 "/>
<path style=" stroke:none;fill-rule:nonzero;fill:rgb(79.998779%,79.60968%,79.219055%);fill-opacity:1;" d="M 57.976562 95.1875 L 94.753906 95.1875 L 94.753906 99.050781 L 57.976562 99.050781 Z M 57.976562 95.1875 "/>
<path style=" stroke:none;fill-rule:nonzero;fill:rgb(79.998779%,79.60968%,79.219055%);fill-opacity:1;" d="M 57.976562 124.566406 L 68.355469 124.566406 L 68.355469 128.429688 L 57.976562 128.429688 Z M 57.976562 124.566406 "/>
<path style=" stroke:none;fill-rule:nonzero;fill:rgb(79.998779%,79.60968%,79.219055%);fill-opacity:1;" d="M 101.167969 95.1875 L 115.789062 95.1875 L 115.789062 99.050781 L 101.167969 99.050781 Z M 101.167969 95.1875 "/>
<path style=" stroke:none;fill-rule:nonzero;fill:rgb(79.998779%,79.60968%,79.219055%);fill-opacity:1;" d="M 71.046875 124.566406 L 108.457031 124.566406 L 108.457031 128.429688 L 71.046875 128.429688 Z M 71.046875 124.566406 "/>
<path style=" stroke:none;fill-rule:nonzero;fill:rgb(79.998779%,79.60968%,79.219055%);fill-opacity:1;" d="M 68.355469 105.222656 L 84.84375 105.222656 L 84.84375 109.070312 L 68.355469 109.070312 Z M 68.355469 105.222656 "/>
<path style=" stroke:none;fill-rule:nonzero;fill:rgb(79.998779%,79.60968%,79.219055%);fill-opacity:1;" d="M 68.355469 154.6875 L 84.84375 154.6875 L 84.84375 158.542969 L 68.355469 158.542969 Z M 68.355469 154.6875 "/>
<path style=" stroke:none;fill-rule:nonzero;fill:rgb(79.998779%,79.60968%,79.219055%);fill-opacity:1;" d="M 57.976562 214.234375 L 84.84375 214.234375 L 84.84375 218.039062 L 57.976562 218.039062 Z M 57.976562 214.234375 "/>
<path style=" stroke:none;fill-rule:nonzero;fill:rgb(79.998779%,79.60968%,79.219055%);fill-opacity:1;" d="M 68.355469 164.761719 L 75.152344 164.761719 L 75.152344 168.566406 L 68.355469 168.566406 Z M 68.355469 164.761719 "/>
<path style=" stroke:none;fill-rule:nonzero;fill:rgb(79.998779%,79.60968%,79.219055%);fill-opacity:1;" d="M 88.734375 154.6875 L 131.832031 154.6875 L 131.832031 158.542969 L 88.734375 158.542969 Z M 88.734375 154.6875 "/>
<path style=" stroke:none;fill-rule:nonzero;fill:rgb(79.998779%,79.60968%,79.219055%);fill-opacity:1;" d="M 85.972656 184.800781 L 100.972656 184.800781 L 100.972656 188.664062 L 85.972656 188.664062 Z M 85.972656 184.800781 "/>
<path style=" stroke:none;fill-rule:nonzero;fill:rgb(79.998779%,79.60968%,79.219055%);fill-opacity:1;" d="M 77.121094 293.761719 L 92.117188 293.761719 L 92.117188 297.621094 L 77.121094 297.621094 Z M 77.121094 293.761719 "/>
<path style=" stroke:none;fill-rule:nonzero;fill:rgb(79.998779%,79.60968%,79.219055%);fill-opacity:1;" d="M 104.921875 184.800781 L 129.269531 184.800781 L 129.269531 188.664062 L 104.921875 188.664062 Z M 104.921875 184.800781 "/>
<path style=" stroke:none;fill-rule:nonzero;fill:rgb(79.998779%,79.60968%,79.219055%);fill-opacity:1;" d="M 132.816406 224.253906 L 145.246094 224.253906 L 145.246094 228.054688 L 132.816406 228.054688 Z M 132.816406 224.253906 "/>
<path style=" stroke:none;fill-rule:nonzero;fill:rgb(79.998779%,79.60968%,79.219055%);fill-opacity:1;" d="M 89.195312 273.71875 L 118.308594 273.71875 L 118.308594 277.519531 L 89.195312 277.519531 Z M 89.195312 273.71875 "/>
<path style=" stroke:none;fill-rule:nonzero;fill:rgb(79.998779%,79.60968%,79.219055%);fill-opacity:1;" d="M 98.617188 293.761719 L 132.828125 293.761719 L 132.828125 297.621094 L 98.617188 297.621094 Z M 98.617188 293.761719 "/>
<path style=" stroke:none;fill-rule:nonzero;fill:rgb(79.998779%,79.60968%,79.219055%);fill-opacity:1;" d="M 160.117188 244.34375 L 172.546875 244.34375 L 172.546875 248.144531 L 160.117188 248.144531 Z M 160.117188 244.34375 "/>
<path style=" stroke:none;fill-rule:nonzero;fill:rgb(79.998779%,79.60968%,79.219055%);fill-opacity:1;" d="M 135.324219 184.800781 L 164.636719 184.800781 L 164.636719 188.664062 L 135.324219 188.664062 Z M 135.324219 184.800781 "/>
<path style=" stroke:none;fill-rule:nonzero;fill:rgb(79.998779%,79.60968%,79.219055%);fill-opacity:1;" d="M 136.722656 154.6875 L 167.71875 154.6875 L 167.71875 158.542969 L 136.722656 158.542969 Z M 136.722656 154.6875 "/>
<path style=" stroke:none;fill-rule:nonzero;fill:rgb(79.998779%,79.60968%,79.219055%);fill-opacity:1;" d="M 174.011719 154.6875 L 193 154.6875 L 193 158.542969 L 174.011719 158.542969 Z M 174.011719 154.6875 "/>
<path style=" stroke:none;fill-rule:nonzero;fill:rgb(79.998779%,79.60968%,79.219055%);fill-opacity:1;" d="M 68.355469 134.648438 L 92.949219 134.648438 L 92.949219 138.449219 L 68.355469 138.449219 Z M 68.355469 134.648438 "/>
<path style=" stroke:none;fill-rule:nonzero;fill:rgb(79.998779%,79.60968%,79.219055%);fill-opacity:1;" d="M 68.355469 144.664062 L 103.257812 144.664062 L 103.257812 148.46875 L 68.355469 148.46875 Z M 68.355469 144.664062 "/>
<path style=" stroke:none;fill-rule:nonzero;fill:rgb(79.998779%,79.60968%,79.219055%);fill-opacity:1;" d="M 77.679688 164.761719 L 117.65625 164.761719 L 117.65625 168.566406 L 77.679688 168.566406 Z M 77.679688 164.761719 "/>
<path style=" stroke:none;fill-rule:nonzero;fill:rgb(79.998779%,79.60968%,79.219055%);fill-opacity:1;" d="M 68.355469 234.273438 L 108.332031 234.273438 L 108.332031 238.128906 L 68.355469 238.128906 Z M 68.355469 234.273438 "/>
<path style=" stroke:none;fill-rule:nonzero;fill:rgb(79.998779%,79.60968%,79.219055%);fill-opacity:1;" d="M 83.007812 244.34375 L 112.269531 244.34375 L 112.269531 248.144531 L 83.007812 248.144531 Z M 83.007812 244.34375 "/>
<path style=" stroke:none;fill-rule:nonzero;fill:rgb(79.998779%,79.60968%,79.219055%);fill-opacity:1;" d="M 105.753906 283.746094 L 183.503906 283.746094 L 183.503906 287.597656 L 105.753906 287.597656 Z M 105.753906 283.746094 "/>
<path style=" stroke:none;fill-rule:nonzero;fill:rgb(79.998779%,79.60968%,79.219055%);fill-opacity:1;" d="M 143.246094 293.761719 L 160.277344 293.761719 L 160.277344 297.621094 L 143.246094 297.621094 Z M 143.246094 293.761719 "/>
<path style=" stroke:none;fill-rule:nonzero;fill:rgb(79.998779%,79.60968%,79.219055%);fill-opacity:1;" d="M 116.996094 244.34375 L 155.089844 244.34375 L 155.089844 248.144531 L 116.996094 248.144531 Z M 116.996094 244.34375 "/>
<path style=" stroke:none;fill-rule:nonzero;fill:rgb(79.998779%,79.60968%,79.219055%);fill-opacity:1;" d="M 129.363281 273.71875 L 167.480469 273.71875 L 167.480469 277.519531 L 129.363281 277.519531 Z M 129.363281 273.71875 "/>
<path style=" stroke:none;fill-rule:nonzero;fill:rgb(79.998779%,79.60968%,79.219055%);fill-opacity:1;" d="M 77.679688 174.789062 L 90.675781 174.789062 L 90.675781 178.605469 L 77.679688 178.605469 Z M 77.679688 174.789062 "/>
<path style=" stroke:none;fill-rule:nonzero;fill:rgb(79.998779%,79.60968%,79.219055%);fill-opacity:1;" d="M 77.679688 194.878906 L 91.804688 194.878906 L 91.804688 198.683594 L 77.679688 198.683594 Z M 77.679688 194.878906 "/>
<path style=" stroke:none;fill-rule:nonzero;fill:rgb(79.998779%,79.60968%,79.219055%);fill-opacity:1;" d="M 68.355469 224.253906 L 127.78125 224.253906 L 127.78125 228.054688 L 68.355469 228.054688 Z M 68.355469 224.253906 "/>
<path style=" stroke:none;fill-rule:nonzero;fill:rgb(79.998779%,79.60968%,79.219055%);fill-opacity:1;" d="M 68.355469 244.34375 L 77.847656 244.34375 L 77.847656 248.144531 L 68.355469 248.144531 Z M 68.355469 244.34375 "/>
<path style=" stroke:none;fill-rule:nonzero;fill:rgb(79.998779%,79.60968%,79.219055%);fill-opacity:1;" d="M 57.976562 273.71875 L 84.621094 273.71875 L 84.621094 277.519531 L 57.976562 277.519531 Z M 57.976562 273.71875 "/>
<path style=" stroke:none;fill-rule:nonzero;fill:rgb(79.998779%,79.60968%,79.219055%);fill-opacity:1;" d="M 68.355469 283.746094 L 98.699219 283.746094 L 98.699219 287.597656 L 68.355469 287.597656 Z M 68.355469 283.746094 "/>
<path style=" stroke:none;fill-rule:nonzero;fill:rgb(79.998779%,79.60968%,79.219055%);fill-opacity:1;" d="M 94.753906 174.789062 L 172.839844 174.789062 L 172.839844 178.605469 L 94.753906 178.605469 Z M 94.753906 174.789062 "/>
<path style=" stroke:none;fill-rule:nonzero;fill:rgb(79.998779%,79.60968%,79.219055%);fill-opacity:1;" d="M 76.648438 254.371094 L 101.628906 254.371094 L 101.628906 258.167969 L 76.648438 258.167969 Z M 76.648438 254.371094 "/>
<path style=" stroke:none;fill-rule:nonzero;fill:rgb(79.998779%,79.60968%,79.219055%);fill-opacity:1;" d="M 110.195312 254.371094 L 179.230469 254.371094 L 179.230469 258.167969 L 110.195312 258.167969 Z M 110.195312 254.371094 "/>
<path style=" stroke:none;fill-rule:nonzero;fill:rgb(79.998779%,79.60968%,79.219055%);fill-opacity:1;" d="M 121.539062 164.761719 L 128.691406 164.761719 L 128.691406 168.566406 L 121.539062 168.566406 Z M 121.539062 164.761719 "/>
<path style=" stroke:none;fill-rule:nonzero;fill:rgb(79.998779%,79.60968%,79.219055%);fill-opacity:1;" d="M 134.074219 164.761719 L 147.484375 164.761719 L 147.484375 168.566406 L 134.074219 168.566406 Z M 134.074219 164.761719 "/>
<path style=" stroke:none;fill-rule:nonzero;fill:rgb(79.998779%,79.60968%,79.219055%);fill-opacity:1;" d="M 106.96875 144.664062 L 141.871094 144.664062 L 141.871094 148.46875 L 106.96875 148.46875 Z M 106.96875 144.664062 "/>
<path style=" stroke:none;fill-rule:nonzero;fill:rgb(79.998779%,79.60968%,79.219055%);fill-opacity:1;" d="M 144.277344 144.664062 L 172.929688 144.664062 L 172.929688 148.46875 L 144.277344 148.46875 Z M 144.277344 144.664062 "/>
<path style=" stroke:none;fill-rule:nonzero;fill:rgb(79.998779%,79.60968%,79.219055%);fill-opacity:1;" d="M 183.507812 144.664062 L 199.046875 144.664062 L 199.046875 148.46875 L 183.507812 148.46875 Z M 183.507812 144.664062 "/>
<path style=" stroke:none;fill-rule:nonzero;fill:rgb(79.998779%,79.60968%,79.219055%);fill-opacity:1;" d="M 100.992188 134.648438 L 138.800781 134.648438 L 138.800781 138.449219 L 100.992188 138.449219 Z M 100.992188 134.648438 "/>
<path style=" stroke:none;fill-rule:nonzero;fill:rgb(79.998779%,79.60968%,79.219055%);fill-opacity:1;" d="M 90.933594 105.222656 L 128.371094 105.222656 L 128.371094 109.070312 L 90.933594 109.070312 Z M 90.933594 105.222656 "/>
<path style=" stroke:none;fill-rule:nonzero;fill:rgb(13.729858%,18.03894%,21.958923%);fill-opacity:1;" d="M 38.519531 55.007812 L 218.511719 55.007812 L 218.511719 74.535156 L 38.519531 74.535156 Z M 38.519531 55.007812 "/>
<g clip-path="url(#clip1)" clip-rule="nonzero">
<path style=" stroke:none;fill-rule:nonzero;fill:rgb(90.19928%,89.7995%,89.7995%);fill-opacity:1;" d="M 320.589844 194.605469 L 320.589844 331.804688 C 320.589844 341.621094 312.648438 349.613281 302.851562 349.613281 C 293.089844 349.613281 285.152344 341.617188 285.152344 331.804688 L 285.152344 164.761719 C 285.152344 153.390625 275.898438 144.105469 264.558594 144.105469 C 253.214844 144.105469 244 153.390625 244 164.761719 L 244 205.089844 L 246.820312 205.089844 L 246.820312 164.761719 C 246.820312 154.953125 254.789062 146.960938 264.558594 146.960938 C 274.339844 146.960938 282.292969 154.953125 282.292969 164.761719 L 282.292969 331.804688 C 282.292969 343.175781 291.511719 352.417969 302.851562 352.417969 C 314.199219 352.417969 323.445312 343.175781 323.445312 331.804688 L 323.445312 194.605469 Z M 320.589844 194.605469 "/>
</g>
<path style=" stroke:none;fill-rule:nonzero;fill:rgb(79.998779%,79.60968%,79.219055%);fill-opacity:1;" d="M 241.910156 205.089844 L 248.890625 205.089844 L 248.890625 218.042969 L 241.910156 218.042969 Z M 241.910156 205.089844 "/>
<path style=" stroke:none;fill-rule:nonzero;fill:rgb(90.19928%,89.7995%,89.7995%);fill-opacity:1;" d="M 318.53125 166.667969 L 325.5 166.667969 L 325.5 175.058594 L 318.53125 175.058594 Z M 318.53125 166.667969 "/>
<path style=" stroke:none;fill-rule:nonzero;fill:rgb(79.998779%,79.60968%,79.219055%);fill-opacity:1;" d="M 316.453125 175.058594 L 327.609375 175.058594 L 327.609375 194.605469 L 316.453125 194.605469 Z M 316.453125 175.058594 "/>
<path style=" stroke:none;fill-rule:nonzero;fill:rgb(79.998779%,79.60968%,79.219055%);fill-opacity:1;" d="M 115.929688 218.125 L 374.894531 218.125 L 374.894531 318.273438 L 115.929688 318.273438 Z M 115.929688 218.125 "/>
<path style=" stroke:none;fill-rule:nonzero;fill:rgb(100%,100%,100%);fill-opacity:1;" d="M 124.4375 226.703125 L 137.355469 226.703125 L 137.355469 239.605469 L 124.4375 239.605469 Z M 124.4375 226.703125 "/>
<path style=" stroke:none;fill-rule:nonzero;fill:rgb(100%,100%,100%);fill-opacity:1;" d="M 336.503906 243.695312 L 349.417969 243.695312 L 349.417969 256.601562 L 336.503906 256.601562 Z M 336.503906 243.695312 "/>
<path style=" stroke:none;fill-rule:nonzero;fill:rgb(100%,100%,100%);fill-opacity:1;" d="M 319.566406 243.695312 L 332.453125 243.695312 L 332.453125 256.601562 L 319.566406 256.601562 Z M 319.566406 243.695312 "/>
<path style=" stroke:none;fill-rule:nonzero;fill:rgb(100%,100%,100%);fill-opacity:1;" d="M 302.59375 243.695312 L 315.472656 243.695312 L 315.472656 256.601562 L 302.59375 256.601562 Z M 302.59375 243.695312 "/>
<path style=" stroke:none;fill-rule:nonzero;fill:rgb(100%,100%,100%);fill-opacity:1;" d="M 285.613281 243.695312 L 298.527344 243.695312 L 298.527344 256.601562 L 285.613281 256.601562 Z M 285.613281 243.695312 "/>
<path style=" stroke:none;fill-rule:nonzero;fill:rgb(100%,100%,100%);fill-opacity:1;" d="M 268.65625 243.695312 L 281.554688 243.695312 L 281.554688 256.601562 L 268.65625 256.601562 Z M 268.65625 243.695312 "/>
<path style=" stroke:none;fill-rule:nonzero;fill:rgb(100%,100%,100%);fill-opacity:1;" d="M 251.699219 243.695312 L 264.585938 243.695312 L 264.585938 256.601562 L 251.699219 256.601562 Z M 251.699219 243.695312 "/>
<path style=" stroke:none;fill-rule:nonzero;fill:rgb(100%,100%,100%);fill-opacity:1;" d="M 234.722656 243.695312 L 247.640625 243.695312 L 247.640625 256.601562 L 234.722656 256.601562 Z M 234.722656 243.695312 "/>
<path style=" stroke:none;fill-rule:nonzero;fill:rgb(100%,100%,100%);fill-opacity:1;" d="M 217.75 243.695312 L 230.667969 243.695312 L 230.667969 256.601562 L 217.75 256.601562 Z M 217.75 243.695312 "/>
<path style=" stroke:none;fill-rule:nonzero;fill:rgb(100%,100%,100%);fill-opacity:1;" d="M 200.808594 243.695312 L 213.695312 243.695312 L 213.695312 256.601562 L 200.808594 256.601562 Z M 200.808594 243.695312 "/>
<path style=" stroke:none;fill-rule:nonzero;fill:rgb(100%,100%,100%);fill-opacity:1;" d="M 183.832031 243.695312 L 196.726562 243.695312 L 196.726562 256.601562 L 183.832031 256.601562 Z M 183.832031 243.695312 "/>
<path style=" stroke:none;fill-rule:nonzero;fill:rgb(100%,100%,100%);fill-opacity:1;" d="M 166.863281 243.695312 L 179.78125 243.695312 L 179.78125 256.601562 L 166.863281 256.601562 Z M 166.863281 243.695312 "/>
<path style=" stroke:none;fill-rule:nonzero;fill:rgb(100%,100%,100%);fill-opacity:1;" d="M 149.917969 243.695312 L 162.804688 243.695312 L 162.804688 256.601562 L 149.917969 256.601562 Z M 149.917969 243.695312 "/>
<path style=" stroke:none;fill-rule:nonzero;fill:rgb(100%,100%,100%);fill-opacity:1;" d="M 153.992188 260.664062 L 166.882812 260.664062 L 166.882812 273.574219 L 153.992188 273.574219 Z M 153.992188 260.664062 "/>
<path style=" stroke:none;fill-rule:nonzero;fill:rgb(100%,100%,100%);fill-opacity:1;" d="M 145.703125 277.691406 L 158.597656 277.691406 L 158.597656 290.609375 L 145.703125 290.609375 Z M 145.703125 277.691406 "/>
<path style=" stroke:none;fill-rule:nonzero;fill:rgb(100%,100%,100%);fill-opacity:1;" d="M 162.648438 277.691406 L 175.570312 277.691406 L 175.570312 290.609375 L 162.648438 290.609375 Z M 162.648438 277.691406 "/>
<path style=" stroke:none;fill-rule:nonzero;fill:rgb(100%,100%,100%);fill-opacity:1;" d="M 179.617188 277.691406 L 192.507812 277.691406 L 192.507812 290.609375 L 179.617188 290.609375 Z M 179.617188 277.691406 "/>
<path style=" stroke:none;fill-rule:nonzero;fill:rgb(100%,100%,100%);fill-opacity:1;" d="M 196.59375 277.691406 L 209.480469 277.691406 L 209.480469 290.609375 L 196.59375 290.609375 Z M 196.59375 277.691406 "/>
<path style=" stroke:none;fill-rule:nonzero;fill:rgb(100%,100%,100%);fill-opacity:1;" d="M 213.53125 277.691406 L 226.453125 277.691406 L 226.453125 290.609375 L 213.53125 290.609375 Z M 213.53125 277.691406 "/>
<path style=" stroke:none;fill-rule:nonzero;fill:rgb(100%,100%,100%);fill-opacity:1;" d="M 230.511719 277.691406 L 243.390625 277.691406 L 243.390625 290.609375 L 230.511719 290.609375 Z M 230.511719 277.691406 "/>
<path style=" stroke:none;fill-rule:nonzero;fill:rgb(100%,100%,100%);fill-opacity:1;" d="M 247.476562 277.691406 L 260.359375 277.691406 L 260.359375 290.609375 L 247.476562 290.609375 Z M 247.476562 277.691406 "/>
<path style=" stroke:none;fill-rule:nonzero;fill:rgb(100%,100%,100%);fill-opacity:1;" d="M 264.414062 277.691406 L 277.335938 277.691406 L 277.335938 290.609375 L 264.414062 290.609375 Z M 264.414062 277.691406 "/>
<path style=" stroke:none;fill-rule:nonzero;fill:rgb(100%,100%,100%);fill-opacity:1;" d="M 281.390625 277.691406 L 294.304688 277.691406 L 294.304688 290.609375 L 281.390625 290.609375 Z M 281.390625 277.691406 "/>
<path style=" stroke:none;fill-rule:nonzero;fill:rgb(100%,100%,100%);fill-opacity:1;" d="M 298.367188 277.691406 L 311.25 277.691406 L 311.25 290.609375 L 298.367188 290.609375 Z M 298.367188 277.691406 "/>
<path style=" stroke:none;fill-rule:nonzero;fill:rgb(100%,100%,100%);fill-opacity:1;" d="M 315.308594 277.691406 L 328.21875 277.691406 L 328.21875 290.609375 L 315.308594 290.609375 Z M 315.308594 277.691406 "/>
<path style=" stroke:none;fill-rule:nonzero;fill:rgb(100%,100%,100%);fill-opacity:1;" d="M 332.246094 277.691406 L 366.359375 277.691406 L 366.359375 290.609375 L 332.246094 290.609375 Z M 332.246094 277.691406 "/>
<path style=" stroke:none;fill-rule:nonzero;fill:rgb(100%,100%,100%);fill-opacity:1;" d="M 170.960938 260.664062 L 183.851562 260.664062 L 183.851562 273.574219 L 170.960938 273.574219 Z M 170.960938 260.664062 "/>
<path style=" stroke:none;fill-rule:nonzero;fill:rgb(100%,100%,100%);fill-opacity:1;" d="M 187.910156 260.664062 L 200.828125 260.664062 L 200.828125 273.574219 L 187.910156 273.574219 Z M 187.910156 260.664062 "/>
<path style=" stroke:none;fill-rule:nonzero;fill:rgb(100%,100%,100%);fill-opacity:1;" d="M 204.878906 260.664062 L 217.757812 260.664062 L 217.757812 273.574219 L 204.878906 273.574219 Z M 204.878906 260.664062 "/>
<path style=" stroke:none;fill-rule:nonzero;fill:rgb(100%,100%,100%);fill-opacity:1;" d="M 221.84375 260.664062 L 234.734375 260.664062 L 234.734375 273.574219 L 221.84375 273.574219 Z M 221.84375 260.664062 "/>
<path style=" stroke:none;fill-rule:nonzero;fill:rgb(100%,100%,100%);fill-opacity:1;" d="M 238.785156 260.664062 L 251.699219 260.664062 L 251.699219 273.574219 L 238.785156 273.574219 Z M 238.785156 260.664062 "/>
<path style=" stroke:none;fill-rule:nonzero;fill:rgb(100%,100%,100%);fill-opacity:1;" d="M 255.753906 260.664062 L 268.640625 260.664062 L 268.640625 273.574219 L 255.753906 273.574219 Z M 255.753906 260.664062 "/>
<path style=" stroke:none;fill-rule:nonzero;fill:rgb(100%,100%,100%);fill-opacity:1;" d="M 272.71875 260.664062 L 285.605469 260.664062 L 285.605469 273.574219 L 272.71875 273.574219 Z M 272.71875 260.664062 "/>
<path style=" stroke:none;fill-rule:nonzero;fill:rgb(100%,100%,100%);fill-opacity:1;" d="M 289.664062 260.664062 L 302.574219 260.664062 L 302.574219 273.574219 L 289.664062 273.574219 Z M 289.664062 260.664062 "/>
<path style=" stroke:none;fill-rule:nonzero;fill:rgb(100%,100%,100%);fill-opacity:1;" d="M 306.625 260.664062 L 319.542969 260.664062 L 319.542969 273.574219 L 306.625 273.574219 Z M 306.625 260.664062 "/>
<path style=" stroke:none;fill-rule:nonzero;fill:rgb(100%,100%,100%);fill-opacity:1;" d="M 323.59375 260.664062 L 336.484375 260.664062 L 336.484375 273.574219 L 323.59375 273.574219 Z M 323.59375 260.664062 "/>
<path style=" stroke:none;fill-rule:nonzero;fill:rgb(100%,100%,100%);fill-opacity:1;" d="M 340.542969 260.664062 L 353.449219 260.664062 L 353.449219 273.574219 L 340.542969 273.574219 Z M 340.542969 260.664062 "/>
<path style=" stroke:none;fill-rule:nonzero;fill:rgb(100%,100%,100%);fill-opacity:1;" d="M 141.414062 226.703125 L 154.324219 226.703125 L 154.324219 239.605469 L 141.414062 239.605469 Z M 141.414062 226.703125 "/>
<path style=" stroke:none;fill-rule:nonzero;fill:rgb(100%,100%,100%);fill-opacity:1;" d="M 158.382812 226.703125 L 171.269531 226.703125 L 171.269531 239.605469 L 158.382812 239.605469 Z M 158.382812 226.703125 "/>
<path style=" stroke:none;fill-rule:nonzero;fill:rgb(100%,100%,100%);fill-opacity:1;" d="M 175.355469 226.703125 L 188.242188 226.703125 L 188.242188 239.605469 L 175.355469 239.605469 Z M 175.355469 226.703125 "/>
<path style=" stroke:none;fill-rule:nonzero;fill:rgb(100%,100%,100%);fill-opacity:1;" d="M 192.292969 226.703125 L 205.214844 226.703125 L 205.214844 239.605469 L 192.292969 239.605469 Z M 192.292969 226.703125 "/>
<path style=" stroke:none;fill-rule:nonzero;fill:rgb(100%,100%,100%);fill-opacity:1;" d="M 209.269531 226.703125 L 222.15625 226.703125 L 222.15625 239.605469 L 209.269531 239.605469 Z M 209.269531 226.703125 "/>
<path style=" stroke:none;fill-rule:nonzero;fill:rgb(100%,100%,100%);fill-opacity:1;" d="M 226.25 226.703125 L 239.121094 226.703125 L 239.121094 239.605469 L 226.25 239.605469 Z M 226.25 226.703125 "/>
<path style=" stroke:none;fill-rule:nonzero;fill:rgb(100%,100%,100%);fill-opacity:1;" d="M 243.1875 226.703125 L 256.097656 226.703125 L 256.097656 239.605469 L 243.1875 239.605469 Z M 243.1875 226.703125 "/>
<path style=" stroke:none;fill-rule:nonzero;fill:rgb(100%,100%,100%);fill-opacity:1;" d="M 260.15625 226.703125 L 273.066406 226.703125 L 273.066406 239.605469 L 260.15625 239.605469 Z M 260.15625 226.703125 "/>
<path style=" stroke:none;fill-rule:nonzero;fill:rgb(100%,100%,100%);fill-opacity:1;" d="M 277.125 226.703125 L 290.011719 226.703125 L 290.011719 239.605469 L 277.125 239.605469 Z M 277.125 226.703125 "/>
<path style=" stroke:none;fill-rule:nonzero;fill:rgb(100%,100%,100%);fill-opacity:1;" d="M 294.066406 226.703125 L 306.988281 226.703125 L 306.988281 239.605469 L 294.066406 239.605469 Z M 294.066406 226.703125 "/>
<path style=" stroke:none;fill-rule:nonzero;fill:rgb(100%,100%,100%);fill-opacity:1;" d="M 311.046875 226.703125 L 323.957031 226.703125 L 323.957031 239.605469 L 311.046875 239.605469 Z M 311.046875 226.703125 "/>
<path style=" stroke:none;fill-rule:nonzero;fill:rgb(100%,100%,100%);fill-opacity:1;" d="M 328.015625 226.703125 L 340.902344 226.703125 L 340.902344 239.605469 L 328.015625 239.605469 Z M 328.015625 226.703125 "/>
<path style=" stroke:none;fill-rule:nonzero;fill:rgb(100%,100%,100%);fill-opacity:1;" d="M 344.957031 226.703125 L 366.351562 226.703125 L 366.351562 239.605469 L 344.957031 239.605469 Z M 344.957031 226.703125 "/>
<path style=" stroke:none;fill-rule:nonzero;fill:rgb(100%,100%,100%);fill-opacity:1;" d="M 124.4375 243.683594 L 145.835938 243.683594 L 145.835938 256.589844 L 124.4375 256.589844 Z M 124.4375 243.683594 "/>
<path style=" stroke:none;fill-rule:nonzero;fill:rgb(100%,100%,100%);fill-opacity:1;" d="M 124.4375 260.664062 L 149.949219 260.664062 L 149.949219 273.574219 L 124.4375 273.574219 Z M 124.4375 260.664062 "/>
<path style=" stroke:none;fill-rule:nonzero;fill:rgb(100%,100%,100%);fill-opacity:1;" d="M 124.4375 277.691406 L 141.632812 277.691406 L 141.632812 290.609375 L 124.4375 290.609375 Z M 124.4375 277.691406 "/>
<path style=" stroke:none;fill-rule:nonzero;fill:rgb(100%,100%,100%);fill-opacity:1;" d="M 124.4375 294.675781 L 137.355469 294.675781 L 137.355469 309.738281 L 124.4375 309.738281 Z M 124.4375 294.675781 "/>
<path style=" stroke:none;fill-rule:nonzero;fill:rgb(100%,100%,100%);fill-opacity:1;" d="M 141.371094 294.675781 L 154.261719 294.675781 L 154.261719 309.738281 L 141.371094 309.738281 Z M 141.371094 294.675781 "/>
<path style=" stroke:none;fill-rule:nonzero;fill:rgb(100%,100%,100%);fill-opacity:1;" d="M 158.269531 294.675781 L 171.191406 294.675781 L 171.191406 309.738281 L 158.269531 309.738281 Z M 158.269531 294.675781 "/>
<path style=" stroke:none;fill-rule:nonzero;fill:rgb(100%,100%,100%);fill-opacity:1;" d="M 175.195312 294.675781 L 192.5 294.675781 L 192.5 309.738281 L 175.195312 309.738281 Z M 175.195312 294.675781 "/>
<path style=" stroke:none;fill-rule:nonzero;fill:rgb(100%,100%,100%);fill-opacity:1;" d="M 196.582031 294.675781 L 277.335938 294.675781 L 277.335938 309.738281 L 196.582031 309.738281 Z M 196.582031 294.675781 "/>
<path style=" stroke:none;fill-rule:nonzero;fill:rgb(100%,100%,100%);fill-opacity:1;" d="M 281.386719 294.675781 L 298.710938 294.675781 L 298.710938 309.738281 L 281.386719 309.738281 Z M 281.386719 294.675781 "/>
<path style=" stroke:none;fill-rule:nonzero;fill:rgb(100%,100%,100%);fill-opacity:1;" d="M 302.730469 294.675781 L 315.628906 294.675781 L 315.628906 309.738281 L 302.730469 309.738281 Z M 302.730469 294.675781 "/>
<path style=" stroke:none;fill-rule:nonzero;fill:rgb(100%,100%,100%);fill-opacity:1;" d="M 319.679688 302.722656 L 332.59375 302.722656 L 332.59375 309.738281 L 319.679688 309.738281 Z M 319.679688 302.722656 "/>
<path style=" stroke:none;fill-rule:nonzero;fill:rgb(100%,100%,100%);fill-opacity:1;" d="M 336.585938 303.128906 L 349.472656 303.128906 L 349.472656 309.738281 L 336.585938 309.738281 Z M 336.585938 303.128906 "/>
<path style=" stroke:none;fill-rule:nonzero;fill:rgb(100%,100%,100%);fill-opacity:1;" d="M 336.585938 294.636719 L 349.472656 294.636719 L 349.472656 301.246094 L 336.585938 301.246094 Z M 336.585938 294.636719 "/>
<path style=" stroke:none;fill-rule:nonzero;fill:rgb(100%,100%,100%);fill-opacity:1;" d="M 353.464844 302.722656 L 366.355469 302.722656 L 366.355469 309.738281 L 353.464844 309.738281 Z M 353.464844 302.722656 "/>
<path style=" stroke:none;fill-rule:nonzero;fill:rgb(100%,100%,100%);fill-opacity:1;" d="M 357.5 273.574219 L 357.5 256.601562 L 353.472656 256.601562 L 353.472656 243.695312 L 366.359375 243.695312 L 366.359375 273.574219 Z M 357.5 273.574219 "/>
<g clip-path="url(#clip2)" clip-rule="nonzero">
<path style=" stroke:none;fill-rule:nonzero;fill:rgb(90.19928%,89.7995%,89.7995%);fill-opacity:1;" d="M 149.515625 23.523438 L 254.261719 23.523438 L 254.261719 86.464844 L 149.515625 86.464844 Z M 149.515625 23.523438 "/>
</g>
<path style=" stroke:none;fill-rule:nonzero;fill:rgb(20.779419%,24.708557%,28.62854%);fill-opacity:1;" d="M 170.515625 63.390625 L 170.515625 46.601562 L 173.917969 46.601562 L 173.917969 53.222656 L 180.558594 53.222656 L 180.558594 46.601562 L 183.964844 46.601562 L 183.964844 63.390625 L 180.558594 63.390625 L 180.558594 56.03125 L 173.917969 56.03125 L 173.917969 63.390625 Z M 170.515625 63.390625 "/>
<path style=" stroke:none;fill-rule:nonzero;fill:rgb(20.779419%,24.708557%,28.62854%);fill-opacity:1;" d="M 191.226562 63.390625 L 191.226562 49.410156 L 186.25 49.410156 L 186.25 46.601562 L 199.601562 46.601562 L 199.601562 49.410156 L 194.636719 49.410156 L 194.636719 63.390625 Z M 191.226562 63.390625 "/>
<path style=" stroke:none;fill-rule:nonzero;fill:rgb(20.779419%,24.708557%,28.62854%);fill-opacity:1;" d="M 201.753906 63.390625 L 201.753906 46.601562 L 206.835938 46.601562 L 209.867188 58.070312 L 212.894531 46.601562 L 217.992188 46.601562 L 217.992188 63.390625 L 214.820312 63.390625 L 214.820312 50.140625 L 211.488281 63.390625 L 208.21875 63.390625 L 204.902344 50.140625 L 204.902344 63.390625 Z M 201.753906 63.390625 "/>
<path style=" stroke:none;fill-rule:nonzero;fill:rgb(20.779419%,24.708557%,28.62854%);fill-opacity:1;" d="M 221.425781 63.390625 L 221.425781 46.71875 L 224.832031 46.71875 L 224.832031 60.589844 L 233.261719 60.589844 L 233.261719 63.390625 Z M 221.425781 63.390625 "/>
<path style=" stroke:none;fill-rule:nonzero;fill:rgb(20.779419%,24.708557%,28.62854%);fill-opacity:1;" d="M 269.894531 97.472656 L 344.957031 97.472656 L 344.957031 131.363281 L 269.894531 131.363281 Z M 269.894531 97.472656 "/>
<path style=" stroke:none;fill-rule:nonzero;fill:rgb(100%,100%,100%);fill-opacity:1;" d="M 300.007812 116.097656 L 302.484375 116.886719 C 302.105469 118.292969 301.480469 119.347656 300.585938 120.027344 C 299.691406 120.710938 298.566406 121.058594 297.183594 121.058594 C 295.492188 121.058594 294.117188 120.457031 293.023438 119.308594 C 291.933594 118.148438 291.386719 116.523438 291.386719 114.535156 C 291.386719 112.398438 291.933594 110.75 293.03125 109.554688 C 294.128906 108.386719 295.550781 107.769531 297.34375 107.769531 C 298.917969 107.769531 300.1875 108.269531 301.152344 109.175781 C 301.730469 109.746094 302.183594 110.527344 302.457031 111.558594 L 299.90625 112.140625 C 299.746094 111.515625 299.449219 110.960938 298.960938 110.582031 C 298.472656 110.199219 297.898438 109.980469 297.230469 109.980469 C 296.261719 109.980469 295.5 110.320312 294.914062 111.011719 C 294.332031 111.699219 294.027344 112.800781 294.027344 114.324219 C 294.027344 115.96875 294.328125 117.117188 294.90625 117.808594 C 295.484375 118.5 296.234375 118.855469 297.15625 118.855469 C 297.855469 118.855469 298.433594 118.609375 298.9375 118.183594 C 299.4375 117.75 299.796875 117.0625 300.007812 116.097656 Z M 300.007812 116.097656 "/>
<path style=" stroke:none;fill-rule:nonzero;fill:rgb(100%,100%,100%);fill-opacity:1;" d="M 307.5 118.980469 L 307.5 115.65625 L 304.140625 115.65625 L 304.140625 113.371094 L 307.5 113.371094 L 307.5 110.050781 L 309.730469 110.050781 L 309.730469 113.371094 L 313.070312 113.371094 L 313.070312 115.65625 L 309.730469 115.65625 L 309.730469 118.980469 Z M 307.5 118.980469 "/>
<path style=" stroke:none;fill-rule:nonzero;fill:rgb(100%,100%,100%);fill-opacity:1;" d="M 317.921875 118.980469 L 317.921875 115.65625 L 314.558594 115.65625 L 314.558594 113.371094 L 317.921875 113.371094 L 317.921875 110.050781 L 320.148438 110.050781 L 320.148438 113.371094 L 323.492188 113.371094 L 323.492188 115.65625 L 320.148438 115.65625 L 320.148438 118.980469 Z M 317.921875 118.980469 "/>
<g clip-path="url(#clip3)" clip-rule="nonzero">
<path style=" stroke:none;fill-rule:nonzero;fill:rgb(96.859741%,48.239136%,33.329773%);fill-opacity:1;" d="M 76.929688 313.917969 C 76.929688 315.175781 76.867188 316.433594 76.746094 317.691406 C 76.621094 318.945312 76.4375 320.191406 76.191406 321.425781 C 75.945312 322.664062 75.640625 323.886719 75.277344 325.09375 C 74.910156 326.300781 74.488281 327.484375 74.007812 328.648438 C 73.523438 329.816406 72.988281 330.953125 72.394531 332.066406 C 71.800781 333.175781 71.15625 334.257812 70.457031 335.304688 C 69.757812 336.355469 69.007812 337.367188 68.210938 338.339844 C 67.414062 339.316406 66.570312 340.25 65.679688 341.140625 C 64.789062 342.03125 63.859375 342.878906 62.886719 343.675781 C 61.914062 344.476562 60.90625 345.226562 59.859375 345.929688 C 58.8125 346.628906 57.734375 347.277344 56.625 347.871094 C 55.515625 348.464844 54.378906 349.003906 53.21875 349.484375 C 52.054688 349.96875 50.875 350.390625 49.667969 350.757812 C 48.464844 351.125 47.246094 351.429688 46.011719 351.675781 C 44.777344 351.921875 43.535156 352.105469 42.285156 352.230469 C 41.03125 352.355469 39.777344 352.417969 38.519531 352.417969 C 37.261719 352.417969 36.003906 352.355469 34.753906 352.230469 C 33.5 352.105469 32.257812 351.921875 31.023438 351.675781 C 29.792969 351.429688 28.574219 351.125 27.367188 350.757812 C 26.164062 350.390625 24.980469 349.96875 23.820312 349.484375 C 22.65625 349.003906 21.519531 348.464844 20.410156 347.871094 C 19.300781 347.277344 18.222656 346.628906 17.179688 345.929688 C 16.132812 345.226562 15.125 344.476562 14.152344 343.675781 C 13.179688 342.878906 12.246094 342.03125 11.359375 341.140625 C 10.46875 340.25 9.625 339.316406 8.824219 338.339844 C 8.027344 337.367188 7.28125 336.355469 6.582031 335.304688 C 5.882812 334.257812 5.234375 333.175781 4.644531 332.066406 C 4.050781 330.953125 3.511719 329.816406 3.03125 328.648438 C 2.550781 327.484375 2.125 326.300781 1.761719 325.09375 C 1.394531 323.886719 1.089844 322.664062 0.84375 321.425781 C 0.601562 320.191406 0.414062 318.945312 0.292969 317.691406 C 0.167969 316.433594 0.105469 315.175781 0.105469 313.917969 C 0.105469 312.65625 0.167969 311.398438 0.292969 310.144531 C 0.414062 308.886719 0.601562 307.640625 0.84375 306.40625 C 1.089844 305.167969 1.394531 303.949219 1.761719 302.742188 C 2.125 301.535156 2.550781 300.347656 3.03125 299.183594 C 3.511719 298.019531 4.050781 296.878906 4.644531 295.769531 C 5.234375 294.65625 5.882812 293.574219 6.582031 292.527344 C 7.28125 291.480469 8.027344 290.46875 8.824219 289.492188 C 9.625 288.519531 10.46875 287.585938 11.359375 286.691406 C 12.246094 285.800781 13.179688 284.957031 14.152344 284.15625 C 15.125 283.355469 16.132812 282.605469 17.179688 281.90625 C 18.222656 281.203125 19.300781 280.558594 20.410156 279.964844 C 21.519531 279.367188 22.65625 278.828125 23.820312 278.347656 C 24.980469 277.863281 26.164062 277.441406 27.367188 277.074219 C 28.574219 276.707031 29.792969 276.402344 31.023438 276.15625 C 32.257812 275.910156 33.5 275.726562 34.753906 275.601562 C 36.003906 275.480469 37.261719 275.417969 38.519531 275.417969 C 39.777344 275.417969 41.03125 275.480469 42.285156 275.601562 C 43.535156 275.726562 44.777344 275.910156 46.011719 276.15625 C 47.246094 276.402344 48.464844 276.707031 49.667969 277.074219 C 50.875 277.441406 52.054688 277.863281 53.21875 278.347656 C 54.378906 278.828125 55.515625 279.367188 56.625 279.964844 C 57.734375 280.558594 58.8125 281.203125 59.859375 281.90625 C 60.90625 282.605469 61.914062 283.355469 62.886719 284.15625 C 63.859375 284.957031 64.789062 285.800781 65.679688 286.691406 C 66.570312 287.585938 67.414062 288.519531 68.210938 289.492188 C 69.007812 290.46875 69.757812 291.480469 70.457031 292.527344 C 71.15625 293.574219 71.800781 294.65625 72.394531 295.769531 C 72.988281 296.878906 73.523438 298.019531 74.007812 299.183594 C 74.488281 300.347656 74.910156 301.535156 75.277344 302.742188 C 75.640625 303.949219 75.945312 305.167969 76.191406 306.40625 C 76.4375 307.640625 76.621094 308.886719 76.746094 310.144531 C 76.867188 311.398438 76.929688 312.65625 76.929688 313.917969 Z M 76.929688 313.917969 "/>
</g>
<path style=" stroke:none;fill-rule:nonzero;fill:rgb(100%,100%,100%);fill-opacity:1;" d="M 14.457031 322.859375 L 14.457031 305.023438 L 20.230469 305.023438 C 22.414062 305.023438 23.84375 305.105469 24.488281 305.3125 C 25.515625 305.59375 26.347656 306.136719 27.042969 307.070312 C 27.738281 307.933594 28.085938 309.082031 28.085938 310.507812 C 28.085938 311.597656 27.886719 312.554688 27.496094 313.292969 C 27.078125 314.03125 26.59375 314.585938 25.96875 315 C 25.367188 315.476562 24.757812 315.710938 24.113281 315.890625 C 23.257812 316.027344 22.03125 316.101562 20.402344 316.101562 L 18.054688 316.101562 L 18.054688 322.859375 Z M 18.054688 308.03125 L 18.054688 313.09375 L 20.023438 313.09375 C 21.449219 313.09375 22.386719 313.015625 22.847656 312.804688 C 23.335938 312.648438 23.707031 312.339844 23.964844 311.953125 C 24.25 311.5625 24.394531 311.109375 24.394531 310.554688 C 24.394531 309.890625 24.207031 309.378906 23.828125 308.972656 C 23.421875 308.550781 22.960938 308.277344 22.382812 308.1875 C 21.9375 308.066406 21.09375 308.03125 19.804688 308.03125 Z M 18.054688 308.03125 "/>
<path style=" stroke:none;fill-rule:nonzero;fill:rgb(100%,100%,100%);fill-opacity:1;" d="M 31.039062 322.859375 L 31.039062 305.023438 L 34.632812 305.023438 L 34.632812 312.027344 L 41.652344 312.027344 L 41.652344 305.023438 L 45.25 305.023438 L 45.25 322.859375 L 41.652344 322.859375 L 41.652344 315.027344 L 34.632812 315.027344 L 34.632812 322.859375 Z M 31.039062 322.859375 "/>
<path style=" stroke:none;fill-rule:nonzero;fill:rgb(100%,100%,100%);fill-opacity:1;" d="M 48.953125 322.859375 L 48.953125 305.023438 L 54.695312 305.023438 C 56.878906 305.023438 58.308594 305.105469 58.976562 305.3125 C 59.984375 305.59375 60.84375 306.136719 61.539062 307.070312 C 62.203125 307.933594 62.550781 309.082031 62.550781 310.507812 C 62.550781 311.597656 62.355469 312.554688 61.964844 313.292969 C 61.574219 314.03125 61.0625 314.585938 60.460938 315 C 59.832031 315.476562 59.222656 315.710938 58.605469 315.890625 C 57.738281 316.027344 56.492188 316.101562 54.867188 316.101562 L 52.523438 316.101562 L 52.523438 322.859375 Z M 52.523438 308.03125 L 52.523438 313.09375 L 54.492188 313.09375 C 55.914062 313.09375 56.855469 313.015625 57.34375 312.804688 C 57.804688 312.648438 58.175781 312.339844 58.464844 311.953125 C 58.722656 311.5625 58.863281 311.109375 58.863281 310.554688 C 58.863281 309.890625 58.671875 309.378906 58.292969 308.972656 C 57.917969 308.550781 57.429688 308.277344 56.851562 308.1875 C 56.433594 308.066406 55.5625 308.03125 54.273438 308.03125 Z M 52.523438 308.03125 "/>
</g>
</svg>
