<?xml version="1.0" encoding="UTF-8"?>
<svg xmlns="http://www.w3.org/2000/svg" xmlns:xlink="http://www.w3.org/1999/xlink" width="375pt" height="374.999991pt" viewBox="0 0 375 374.999991" version="1.2">
<defs>
<clipPath id="clip1">
  <path d="M 24.714844 77 L 157 77 L 157 195 L 24.714844 195 Z M 24.714844 77 "/>
</clipPath>
<clipPath id="clip2">
  <path d="M 24.714844 176 L 283 176 L 283 340 L 24.714844 340 Z M 24.714844 176 "/>
</clipPath>
</defs>
<g id="surface1">
<path style=" stroke:none;fill-rule:nonzero;fill:rgb(96.078491%,68.629456%,56.858826%);fill-opacity:1;" d="M 78.109375 53.773438 C 72.429688 51.804688 69.125 47.726562 67.496094 41.890625 C 65.609375 35.117188 64.820312 27.886719 66.457031 21.046875 C 68.09375 14.203125 72.394531 7.800781 78.714844 4.695312 C 85.929688 1.152344 94.441406 2.28125 102.441406 1.460938 C 105.976562 1.09375 109.515625 0.332031 113.058594 0.628906 C 116.605469 0.921875 121.140625 3.136719 122.785156 6.289062 C 124.585938 5.171875 127.136719 5.460938 128.644531 6.949219 C 130.011719 8.304688 130.421875 10.320312 130.816406 12.207031 C 131.492188 15.414062 132.3125 18.613281 133.621094 21.621094 C 134.769531 24.257812 136.296875 26.75 137.058594 29.523438 C 137.445312 30.949219 137.597656 32.578125 136.777344 33.808594 C 135.75 35.351562 133.648438 35.667969 131.800781 35.84375 C 129.15625 36.089844 126.554688 35.644531 124.148438 34.519531 C 121.742188 33.398438 119.269531 31.96875 116.628906 32.253906 C 115.183594 32.40625 113.835938 33.078125 112.644531 33.910156 C 105.59375 38.828125 103.375 49.15625 95.652344 52.9375 C 90.523438 55.445312 84.203125 55.664062 78.789062 53.996094 C 78.558594 53.925781 78.332031 53.851562 78.109375 53.773438 Z M 78.109375 53.773438 "/>
<path style=" stroke:none;fill-rule:nonzero;fill:rgb(6.669617%,6.669617%,7.449341%);fill-opacity:0.4275;" d="M 78.109375 53.773438 C 72.429688 51.804688 69.125 47.726562 67.496094 41.890625 C 65.609375 35.117188 64.820312 27.886719 66.457031 21.046875 C 68.09375 14.203125 72.394531 7.800781 78.714844 4.695312 C 85.929688 1.152344 94.441406 2.28125 102.441406 1.460938 C 105.976562 1.09375 109.515625 0.332031 113.058594 0.628906 C 116.605469 0.921875 121.140625 3.136719 122.785156 6.289062 C 124.585938 5.171875 127.136719 5.460938 128.644531 6.949219 C 130.011719 8.304688 130.421875 10.320312 130.816406 12.207031 C 131.492188 15.414062 132.3125 18.613281 133.621094 21.621094 C 134.769531 24.257812 136.296875 26.75 137.058594 29.523438 C 137.445312 30.949219 137.597656 32.578125 136.777344 33.808594 C 135.75 35.351562 133.648438 35.667969 131.800781 35.84375 C 129.15625 36.089844 126.554688 35.644531 124.148438 34.519531 C 121.742188 33.398438 119.269531 31.96875 116.628906 32.253906 C 115.183594 32.40625 113.835938 33.078125 112.644531 33.910156 C 105.59375 38.828125 103.375 49.15625 95.652344 52.9375 C 90.523438 55.445312 84.203125 55.664062 78.789062 53.996094 C 78.558594 53.925781 78.332031 53.851562 78.109375 53.773438 Z M 78.109375 53.773438 "/>
<path style=" stroke:none;fill-rule:nonzero;fill:rgb(96.078491%,68.629456%,56.858826%);fill-opacity:1;" d="M 148.765625 332.332031 L 160.683594 349.726562 L 181.175781 334.847656 L 180.832031 333.867188 L 170.910156 317.199219 Z M 148.765625 332.332031 "/>
<path style=" stroke:none;fill-rule:nonzero;fill:rgb(6.669617%,6.669617%,7.449341%);fill-opacity:1;" d="M 158.164062 347.964844 L 182.296875 332.953125 C 192.378906 335.605469 203.433594 338.058594 214.113281 336.984375 C 216.921875 336.707031 219.542969 336.15625 222.238281 335.265625 C 225.050781 334.34375 227.886719 333.308594 230.824219 333.027344 C 231.925781 332.917969 233.441406 333.363281 233.183594 334.429688 C 233.089844 334.765625 232.828125 335.027344 232.574219 335.28125 C 230.246094 337.5 227.535156 339.289062 224.851562 341.074219 C 218.378906 345.355469 211.90625 349.632812 205.429688 353.910156 C 202.601562 355.796875 199.761719 357.671875 196.921875 359.550781 C 193.992188 361.488281 190.511719 363.523438 187.246094 362.585938 C 188.046875 363.179688 188.023438 364.4375 187.492188 365.332031 C 186.957031 366.214844 186.046875 366.804688 185.160156 367.375 C 181.632812 369.660156 178.09375 371.933594 174.558594 374.207031 C 174.242188 374.417969 173.894531 374.628906 173.53125 374.601562 C 173.148438 374.558594 172.867188 374.25 172.621094 373.964844 C 166.324219 366.761719 159.46875 357.53125 158.164062 347.964844 Z M 158.164062 347.964844 "/>
<g clip-path="url(#clip1)" clip-rule="nonzero">
<path style=" stroke:none;fill-rule:nonzero;fill:rgb(23.919678%,29.019165%,60.389709%);fill-opacity:1;" d="M 109.582031 81.265625 L 114.792969 82.230469 C 126.109375 84.328125 135.980469 91.179688 141.890625 101.042969 L 156.246094 124.433594 L 125.847656 143.414062 L 119.757812 132.179688 L 116.085938 182.097656 L 71.054688 194.535156 L 24.78125 189.644531 L 28.886719 131.242188 C 29.589844 121.871094 31.769531 112.671875 35.34375 103.984375 C 39.816406 93.101562 48.347656 84.378906 59.136719 79.65625 L 64.429688 77.335938 Z M 109.582031 81.265625 "/>
</g>
<path style=" stroke:none;fill-rule:nonzero;fill:rgb(96.078491%,68.629456%,56.858826%);fill-opacity:1;" d="M 122.085938 9.039062 C 129.3125 15.035156 132.847656 24.785156 131.320312 33.8125 C 130.929688 36.125 130.230469 38.410156 130.261719 40.753906 C 130.292969 43.101562 131.226562 45.617188 133.335938 46.816406 C 133.773438 47.0625 134.332031 47.394531 134.234375 47.875 C 134.191406 48.09375 134.003906 48.261719 133.824219 48.402344 C 132.742188 49.238281 131.359375 49.703125 129.96875 49.703125 C 129.644531 49.703125 129.289062 49.6875 129.039062 49.882812 C 128.796875 50.070312 128.734375 50.394531 128.691406 50.6875 C 128.511719 51.832031 128.332031 52.980469 128.15625 54.128906 L 117.890625 52.671875 C 119.152344 56.269531 122.5625 58.757812 126.457031 60.148438 C 127.167969 64.96875 121.9375 70.503906 116.871094 70.441406 C 114.675781 70.414062 112.578125 69.609375 110.410156 69.257812 C 108.246094 68.902344 105.742188 69.125 104.3125 70.71875 C 102.363281 72.890625 102.371094 78.675781 102.371094 78.675781 C 102.371094 78.675781 109.574219 81.265625 109.582031 81.269531 C 110.296875 81.535156 107.421875 84.578125 107.183594 84.835938 C 105.761719 86.363281 104.140625 87.507812 102.226562 88.464844 C 101.5 88.828125 100.757812 89.152344 100 89.433594 C 93.789062 91.75 86.789062 91.21875 80.730469 88.660156 C 76.398438 86.890625 72.769531 84.183594 68.976562 81.574219 C 68.109375 80.980469 66.027344 79.246094 64.386719 77.882812 C 64.171875 77.703125 64.15625 77.40625 64.433594 77.339844 L 73.597656 75.15625 L 76.933594 53.34375 C 81.363281 54.386719 86.109375 54.460938 89.679688 51.753906 C 90.882812 50.84375 91.871094 49.417969 91.558594 47.972656 C 91.375 47.113281 90.765625 46.40625 90.3125 45.640625 C 89.417969 44.128906 89.128906 42.363281 88.941406 40.636719 C 88.628906 37.78125 88.851562 34.308594 91.65625 33.023438 C 93.605469 32.128906 95.9375 32.804688 97.449219 34.296875 C 99.726562 36.546875 100.042969 39.746094 100.054688 42.753906 L 103.648438 43.277344 C 104.003906 39.191406 104.816406 34.574219 105.167969 30.492188 C 105.296875 29.011719 105.429688 27.511719 106.011719 26.136719 C 107.074219 23.613281 109.480469 21.875 111.824219 20.339844 C 115.980469 17.617188 120.765625 13.707031 122.085938 9.039062 Z M 122.085938 9.039062 "/>
<path style=" stroke:none;fill-rule:nonzero;fill:rgb(6.669617%,6.669617%,7.449341%);fill-opacity:1;" d="M 126.824219 36.679688 C 126.984375 36.796875 127.097656 36.960938 127.164062 37.179688 C 127.230469 37.398438 127.242188 37.648438 127.207031 37.9375 C 127.171875 38.222656 127.085938 38.519531 126.949219 38.832031 C 126.816406 39.140625 126.644531 39.441406 126.433594 39.726562 C 126.21875 40.015625 125.988281 40.269531 125.730469 40.492188 C 125.472656 40.710938 125.214844 40.882812 124.953125 41.003906 C 124.691406 41.125 124.445312 41.1875 124.21875 41.191406 C 123.992188 41.191406 123.796875 41.136719 123.636719 41.019531 C 123.480469 40.902344 123.367188 40.734375 123.300781 40.515625 C 123.234375 40.300781 123.21875 40.046875 123.253906 39.761719 C 123.292969 39.476562 123.378906 39.175781 123.511719 38.867188 C 123.648438 38.554688 123.820312 38.257812 124.03125 37.96875 C 124.242188 37.679688 124.476562 37.425781 124.730469 37.207031 C 124.988281 36.984375 125.246094 36.8125 125.507812 36.691406 C 125.769531 36.570312 126.015625 36.511719 126.242188 36.507812 C 126.472656 36.503906 126.664062 36.5625 126.824219 36.679688 Z M 126.824219 36.679688 "/>
<path style=" stroke:none;fill-rule:nonzero;fill:rgb(6.669617%,6.669617%,7.449341%);fill-opacity:1;" d="M 122.285156 33.015625 C 124.449219 32.363281 126.875 32.546875 128.917969 33.507812 C 128.683594 32.839844 127.953125 32.246094 127.269531 32 C 125.496094 31.363281 123.734375 31.859375 122.285156 33.015625 Z M 122.285156 33.015625 "/>
<g clip-path="url(#clip2)" clip-rule="nonzero">
<path style=" stroke:none;fill-rule:nonzero;fill:rgb(98.039246%,71.369934%,6.269836%);fill-opacity:1;" d="M 116.503906 176.425781 L 175.933594 181.898438 C 191.703125 182.6875 207.25 186.238281 221.945312 192.40625 L 282.3125 217.757812 L 271.167969 251.898438 L 208.195312 232.859375 C 195.371094 228.980469 182.140625 226.832031 168.820312 226.464844 L 113.886719 224.945312 L 138.632812 260.023438 C 139.664062 261.488281 140.664062 262.980469 141.621094 264.5 L 177.714844 321.695312 L 149.199219 339.035156 L 121.839844 306.214844 C 104.636719 285.574219 84.027344 268.417969 61.03125 255.589844 L 50.148438 249.515625 C 35.671875 241.441406 26.3125 225.839844 25.582031 208.566406 L 24.714844 188.148438 L 80.066406 178.855469 C 84.796875 178.0625 89.570312 177.5625 94.359375 177.359375 Z M 116.503906 176.425781 "/>
</g>
<path style=" stroke:none;fill-rule:nonzero;fill:rgb(92.939758%,40.388489%,27.059937%);fill-opacity:1;" d="M 187.421875 285.3125 L 119.796875 232.128906 L 241.0625 227.015625 Z M 187.421875 285.3125 "/>
<path style=" stroke:none;fill-rule:nonzero;fill:rgb(6.669617%,6.669617%,7.449341%);fill-opacity:0.0784;" d="M 187.421875 285.3125 L 119.796875 232.128906 L 241.0625 227.015625 Z M 187.421875 285.3125 "/>
<path style=" stroke:none;fill-rule:nonzero;fill:rgb(96.078491%,68.629456%,56.858826%);fill-opacity:1;" d="M 153.730469 125.113281 L 168.691406 152.613281 C 173.59375 161.625 179.765625 169.890625 187.023438 177.152344 L 215.261719 205.421875 L 203.703125 224.230469 L 169.320312 195.011719 C 157 184.539062 146.394531 172.203125 137.898438 158.453125 L 127.496094 141.632812 L 153.730469 125.113281 "/>
<path style=" stroke:none;fill-rule:nonzero;fill:rgb(6.669617%,6.669617%,7.449341%);fill-opacity:0.3882;" d="M 49.792969 104.351562 C 55.382812 103.910156 62.390625 107.085938 66.148438 111.246094 C 69.902344 115.40625 71.382812 120.304688 73.710938 125.402344 C 75.230469 128.71875 76.0625 132.203125 77.578125 135.523438 C 75.972656 129.925781 75.382812 124.230469 73.453125 118.734375 C 72.679688 116.527344 71.847656 114.324219 70.667969 112.308594 C 66.429688 105.082031 58.039062 102.847656 49.792969 104.351562 Z M 49.792969 104.351562 "/>
<path style=" stroke:none;fill-rule:nonzero;fill:rgb(92.939758%,40.388489%,27.059937%);fill-opacity:1;" d="M 344.234375 166.828125 L 226.59375 175.328125 C 220.578125 175.761719 215.5 179.960938 213.949219 185.78125 L 187.421875 285.3125 L 316.195312 275.257812 L 348.753906 172.542969 C 349.691406 169.578125 347.339844 166.601562 344.234375 166.828125 Z M 344.234375 166.828125 "/>
<path style=" stroke:none;fill-rule:nonzero;fill:rgb(96.078491%,68.629456%,56.858826%);fill-opacity:1;" d="M 48.464844 153.820312 C 48.464844 153.820312 72.195312 192.214844 72.195312 192.214844 C 75.628906 194.828125 79.0625 197.441406 82.492188 200.054688 C 89.699219 205.539062 96.902344 211.023438 104.105469 216.507812 C 110.445312 221.332031 116.820312 226.109375 123.125 230.984375 C 124.308594 231.898438 125.558594 232.734375 126.679688 233.726562 C 128.128906 235.007812 129.367188 236.273438 131.132812 237.125 C 133.226562 238.132812 135.449219 238.855469 137.515625 239.921875 C 142.765625 242.625 146.472656 247.546875 151.21875 251.046875 C 151.738281 251.429688 152.496094 251.78125 152.964844 251.34375 C 153.183594 250.558594 152.695312 249.773438 152.230469 249.121094 C 149.707031 245.5625 146.847656 242.015625 143.867188 238.832031 C 148.011719 241.328125 151.984375 244.105469 155.71875 247.175781 C 157.445312 248.582031 159.414062 250.128906 161.605469 249.835938 C 161.855469 249.808594 162.105469 249.730469 162.234375 249.542969 C 162.390625 249.300781 162.308594 248.984375 162.214844 248.71875 C 162.023438 248.15625 161.847656 247.605469 161.65625 247.058594 C 162.453125 247.597656 163.441406 247.875 164.398438 247.816406 C 164.71875 247.804688 165.054688 247.757812 165.296875 247.546875 C 165.769531 247.15625 165.722656 246.453125 165.5625 245.867188 C 164.992188 243.925781 163.5625 242.371094 162.15625 240.917969 C 159.582031 238.183594 156.976562 235.535156 154.40625 232.820312 C 159.027344 235.414062 163.664062 238.011719 168.304688 240.609375 C 169.21875 241.125 170.632812 241.484375 171.078125 240.542969 C 171.386719 239.855469 170.816406 239.089844 170.273438 238.558594 C 165.015625 233.28125 159.246094 228.226562 152.28125 225.59375 C 150.894531 225.066406 149.464844 224.636719 148.074219 224.089844 C 142.605469 221.933594 138.644531 218.105469 134.464844 214.148438 C 131.375 211.226562 128.289062 208.304688 125.203125 205.382812 C 118.429688 198.96875 111.65625 192.558594 104.882812 186.144531 C 103.109375 184.464844 101.332031 182.785156 99.558594 181.101562 C 98.996094 180.570312 97.929688 179.898438 97.554688 179.207031 C 97.554688 179.203125 78.128906 143.488281 78.128906 143.488281 Z M 48.464844 153.820312 "/>
<path style=" stroke:none;fill-rule:nonzero;fill:rgb(96.078491%,68.629456%,56.858826%);fill-opacity:0.2863;" d="M 282.671875 226.484375 C 282.671875 227.191406 282.601562 227.886719 282.464844 228.578125 C 282.328125 229.269531 282.125 229.9375 281.855469 230.589844 C 281.585938 231.238281 281.253906 231.855469 280.863281 232.441406 C 280.46875 233.027344 280.027344 233.570312 279.527344 234.066406 C 279.027344 234.566406 278.484375 235.007812 277.898438 235.402344 C 277.3125 235.792969 276.695312 236.121094 276.042969 236.390625 C 275.394531 236.660156 274.722656 236.863281 274.03125 237 C 273.339844 237.140625 272.640625 237.207031 271.9375 237.207031 C 271.230469 237.207031 270.53125 237.140625 269.839844 237 C 269.148438 236.863281 268.480469 236.660156 267.828125 236.390625 C 267.175781 236.121094 266.558594 235.792969 265.972656 235.402344 C 265.386719 235.007812 264.84375 234.566406 264.34375 234.066406 C 263.847656 233.570312 263.402344 233.027344 263.007812 232.441406 C 262.617188 231.855469 262.285156 231.238281 262.015625 230.589844 C 261.746094 229.9375 261.542969 229.269531 261.40625 228.578125 C 261.269531 227.886719 261.199219 227.191406 261.199219 226.484375 C 261.199219 225.78125 261.269531 225.085938 261.40625 224.394531 C 261.542969 223.703125 261.746094 223.035156 262.015625 222.382812 C 262.285156 221.730469 262.617188 221.113281 263.007812 220.527344 C 263.402344 219.945312 263.847656 219.402344 264.34375 218.90625 C 264.84375 218.40625 265.386719 217.960938 265.972656 217.570312 C 266.558594 217.179688 267.175781 216.847656 267.828125 216.582031 C 268.480469 216.3125 269.148438 216.105469 269.839844 215.96875 C 270.53125 215.832031 271.230469 215.765625 271.9375 215.765625 C 272.640625 215.765625 273.339844 215.832031 274.03125 215.96875 C 274.722656 216.105469 275.394531 216.3125 276.042969 216.582031 C 276.695312 216.847656 277.3125 217.179688 277.898438 217.570312 C 278.484375 217.960938 279.027344 218.40625 279.527344 218.90625 C 280.027344 219.402344 280.46875 219.945312 280.863281 220.527344 C 281.253906 221.113281 281.585938 221.730469 281.855469 222.382812 C 282.125 223.035156 282.328125 223.703125 282.464844 224.394531 C 282.601562 225.085938 282.671875 225.78125 282.671875 226.484375 Z M 282.671875 226.484375 "/>
<path style=" stroke:none;fill-rule:nonzero;fill:rgb(6.669617%,6.669617%,7.449341%);fill-opacity:0.3882;" d="M 119.785156 120.097656 C 120.164062 115.765625 120.3125 111.410156 120.230469 107.0625 C 120.191406 104.914062 120.097656 102.761719 119.726562 100.644531 C 119.042969 96.71875 117.4375 93.011719 115.636719 89.457031 C 119.667969 93.058594 121.769531 98.226562 122.203125 103.609375 C 122.636719 108.992188 120.960938 114.828125 119.785156 120.097656 Z M 119.785156 120.097656 "/>
<path style=" stroke:none;fill-rule:nonzero;fill:rgb(6.669617%,6.669617%,7.449341%);fill-opacity:0.3882;" d="M 39.644531 231.074219 C 48.957031 221.484375 54.226562 208.097656 53.941406 194.742188 C 52.066406 201.976562 50.371094 209.21875 45.445312 214.847656 C 43.234375 217.378906 40.523438 219.414062 37.835938 221.433594 C 38.917969 225.421875 38.566406 227.085938 39.644531 231.074219 Z M 39.644531 231.074219 "/>
</g>
</svg>
